<svg width="22" height="26" viewBox="0 0 22 26" fill="none" xmlns="http://www.w3.org/2000/svg">
<path d="M11 26C12.5125 26 13.75 24.8 13.75 23.3333H8.25C8.25 24.8 9.4875 26 11 26ZM19.25 18V11.3333C19.25 7.24 17.0088 3.81333 13.0625 2.90667V2C13.0625 0.893333 12.1413 0 11 0C9.85875 0 8.9375 0.893333 8.9375 2V2.90667C5.005 3.81333 2.75 7.22667 2.75 11.3333V18L0 20.6667V22H22V20.6667L19.25 18ZM16.5 19.3333H5.5V11.3333C5.5 8.02667 7.57625 5.33333 11 5.33333C14.4237 5.33333 16.5 8.02667 16.5 11.3333V19.3333Z" fill="#666666"/>
</svg>
