<svg xmlns="http://www.w3.org/2000/svg" width="900" height="600" viewBox="0 0 238.12 158.75"><rect width="238.12" height="158.75" fill="#fff" fill-rule="evenodd" rx=".33735" ry=".19182"/><g stroke-width="3.4644"><path d="m179.238 15.164-5.564 5.107 8.952 11.094 5.565-5.1zM171.356 22.4l-5.564 5.1 22.689 28.133 5.57-5.107zM163.47 29.632l-5.564 5.1 8.952 11.1 5.565-5.099zM192.983 32.193l-5.57 5.107 8.952 11.1 5.57-5.1zM177.208 46.662l-5.564 5.106 8.959 11.094 5.564-5.1zM58.892 15.164 36.196 43.297l5.57 5.107 22.69-28.133zM66.774 22.4 44.078 50.526l5.57 5.107L72.339 27.5zM74.66 29.632 51.964 57.765l5.564 5.1 22.696-28.133zM57.526 95.887l-5.564 5.1 22.696 28.133 5.564-5.107zM49.65 103.117l-5.57 5.1 8.958 11.1 5.564-5.1zM41.765 110.348l-5.57 5.107 22.695 28.133 5.564-5.107zM63.388 120.151l-5.564 5.1 8.952 11.1 5.565-5.099z"/></g><g stroke-width="3.4649"><path d="m180.61 95.886-8.96 11.095 5.565 5.107 8.96-11.102zM188.487 103.117l-8.954 11.102 5.565 5.1 8.96-11.102zM196.375 110.348l-8.954 11.102 5.572 5.1 8.947-11.095zM166.863 112.919l-8.954 11.095 5.565 5.107 8.954-11.102zM174.747 120.152l-8.954 11.102 5.565 5.1 8.954-11.102zM182.634 127.382l-8.954 11.102 5.565 5.1 8.954-11.102z"/></g><path fill="#da251d" d="M126.28 40.352c21.556 3.99 35.795 24.703 31.802 46.258-3.994 21.556-21.056 25.278-42.611 21.287-21.556-3.993-39.446-14.191-35.45-35.746 3.99-21.556 24.704-35.794 46.259-31.801z"/><path fill="#29166f" fill-rule="evenodd" d="M139.05 63.158a20.118 20.118 0 0 0-11.829 3.553 20.082 20.082 0 0 0-8.168 12.668 20.085 20.085 0 0 1-8.163 12.668 20.082 20.082 0 0 1-14.711 3.279 20.093 20.093 0 0 1-12.921-8.213 20.115 20.115 0 0 1-3.41-13.787 39.696 39.695 0 0 0 31.977 45.085 39.696 39.695 0 0 0 46.256-31.798l.011-.069a39.696 39.695 0 0 0 .168-1.13 20.118 20.118 0 0 0-3.41-13.768 20.088 20.088 0 0 0-12.923-8.21 19.362 19.362 0 0 0-2.88-.274z"/></svg>