<svg width="24" height="24" viewBox="0 0 24 24" fill="none" xmlns="http://www.w3.org/2000/svg">
<path d="M12 0C5.376 0 0 5.376 0 12C0 18.624 5.376 24 12 24C18.624 24 24 18.624 24 12C24 5.376 18.624 0 12 0ZM6.42 19.8C7.992 18.672 9.912 18 12 18C14.088 18 16.008 18.672 17.58 19.8C16.008 20.928 14.088 21.6 12 21.6C9.912 21.6 7.992 20.928 6.42 19.8ZM19.368 18.144C17.34 16.56 14.784 15.6 12 15.6C9.216 15.6 6.66 16.56 4.632 18.144C3.24 16.476 2.4 14.34 2.4 12C2.4 6.696 6.696 2.4 12 2.4C17.304 2.4 21.6 6.696 21.6 12C21.6 14.34 20.76 16.476 19.368 18.144Z" fill="#666666"/>
<path d="M12 4.79993C9.68402 4.79993 7.80002 6.68393 7.80002 8.99993C7.80002 11.3159 9.68402 13.1999 12 13.1999C14.316 13.1999 16.2 11.3159 16.2 8.99993C16.2 6.68393 14.316 4.79993 12 4.79993ZM12 10.7999C11.004 10.7999 10.2 9.99593 10.2 8.99993C10.2 8.00393 11.004 7.19993 12 7.19993C12.996 7.19993 13.8 8.00393 13.8 8.99993C13.8 9.99593 12.996 10.7999 12 10.7999Z" fill="#666666"/>
</svg>
